<svg width="22" height="22" viewBox="0 0 22 22" fill="none" xmlns="http://www.w3.org/2000/svg">
<path d="M10.6562 0.34375C4.76953 0.34375 0 5.11328 0 11C0 16.8867 4.76953 21.6562 10.6562 21.6562C16.543 21.6562 21.3125 16.8867 21.3125 11C21.3125 5.11328 16.543 0.34375 10.6562 0.34375ZM15.8813 13.7973C16.0832 13.9992 16.0832 14.3258 15.8813 14.5277L14.1797 16.225C13.9777 16.427 13.6512 16.427 13.4492 16.225L10.6562 13.4062L7.85898 16.225C7.65703 16.427 7.33047 16.427 7.12852 16.225L5.43125 14.5234C5.2293 14.3215 5.2293 13.9949 5.43125 13.793L8.25 11L5.43125 8.20273C5.2293 8.00078 5.2293 7.67422 5.43125 7.47227L7.13281 5.7707C7.33477 5.56875 7.66133 5.56875 7.86328 5.7707L10.6562 8.59375L13.4535 5.775C13.6555 5.57305 13.982 5.57305 14.184 5.775L15.8855 7.47656C16.0875 7.67852 16.0875 8.00508 15.8855 8.20703L13.0625 11L15.8813 13.7973Z" fill="#FF3333"/>
</svg>
